<?xml version="1.0" encoding="UTF-8" standalone="no"?>
<svg xmlns="http://www.w3.org/2000/svg" version="1.1" width="986" height="986">
	<!-- Created with https://api.qrserver.com (QR Code API, see goQR.me/api for information) -->
	<title>QR Code</title>
	<desc>https://qr.shygo.cn/</desc>
	<rect style="fill:rgb(255, 255, 255);fill-opacity:1" x="0" y="0" width="986" height="986"/>
	<g id="elements">
		<path style="fill:rgb(0, 0, 0)" d="M 0,0 l 34,0 0,34 -34,0 z M 34,0 l 34,0 0,34 -34,0 z M 68,0 l 34,0 0,34 -34,0 z M 102,0 l 34,0 0,34 -34,0 z M 136,0 l 34,0 0,34 -34,0 z M 170,0 l 34,0 0,34 -34,0 z M 204,0 l 34,0 0,34 -34,0 z M 272,0 l 34,0 0,34 -34,0 z M 340,0 l 34,0 0,34 -34,0 z M 408,0 l 34,0 0,34 -34,0 z M 476,0 l 34,0 0,34 -34,0 z M 510,0 l 34,0 0,34 -34,0 z M 544,0 l 34,0 0,34 -34,0 z M 578,0 l 34,0 0,34 -34,0 z M 612,0 l 34,0 0,34 -34,0 z M 680,0 l 34,0 0,34 -34,0 z M 748,0 l 34,0 0,34 -34,0 z M 782,0 l 34,0 0,34 -34,0 z M 816,0 l 34,0 0,34 -34,0 z M 850,0 l 34,0 0,34 -34,0 z M 884,0 l 34,0 0,34 -34,0 z M 918,0 l 34,0 0,34 -34,0 z M 952,0 l 34,0 0,34 -34,0 z M 0,34 l 34,0 0,34 -34,0 z M 204,34 l 34,0 0,34 -34,0 z M 272,34 l 34,0 0,34 -34,0 z M 374,34 l 34,0 0,34 -34,0 z M 442,34 l 34,0 0,34 -34,0 z M 476,34 l 34,0 0,34 -34,0 z M 578,34 l 34,0 0,34 -34,0 z M 646,34 l 34,0 0,34 -34,0 z M 748,34 l 34,0 0,34 -34,0 z M 952,34 l 34,0 0,34 -34,0 z M 0,68 l 34,0 0,34 -34,0 z M 68,68 l 34,0 0,34 -34,0 z M 102,68 l 34,0 0,34 -34,0 z M 136,68 l 34,0 0,34 -34,0 z M 204,68 l 34,0 0,34 -34,0 z M 272,68 l 34,0 0,34 -34,0 z M 408,68 l 34,0 0,34 -34,0 z M 442,68 l 34,0 0,34 -34,0 z M 510,68 l 34,0 0,34 -34,0 z M 544,68 l 34,0 0,34 -34,0 z M 612,68 l 34,0 0,34 -34,0 z M 646,68 l 34,0 0,34 -34,0 z M 680,68 l 34,0 0,34 -34,0 z M 748,68 l 34,0 0,34 -34,0 z M 816,68 l 34,0 0,34 -34,0 z M 850,68 l 34,0 0,34 -34,0 z M 884,68 l 34,0 0,34 -34,0 z M 952,68 l 34,0 0,34 -34,0 z M 0,102 l 34,0 0,34 -34,0 z M 68,102 l 34,0 0,34 -34,0 z M 102,102 l 34,0 0,34 -34,0 z M 136,102 l 34,0 0,34 -34,0 z M 204,102 l 34,0 0,34 -34,0 z M 306,102 l 34,0 0,34 -34,0 z M 442,102 l 34,0 0,34 -34,0 z M 476,102 l 34,0 0,34 -34,0 z M 578,102 l 34,0 0,34 -34,0 z M 646,102 l 34,0 0,34 -34,0 z M 748,102 l 34,0 0,34 -34,0 z M 816,102 l 34,0 0,34 -34,0 z M 850,102 l 34,0 0,34 -34,0 z M 884,102 l 34,0 0,34 -34,0 z M 952,102 l 34,0 0,34 -34,0 z M 0,136 l 34,0 0,34 -34,0 z M 68,136 l 34,0 0,34 -34,0 z M 102,136 l 34,0 0,34 -34,0 z M 136,136 l 34,0 0,34 -34,0 z M 204,136 l 34,0 0,34 -34,0 z M 340,136 l 34,0 0,34 -34,0 z M 374,136 l 34,0 0,34 -34,0 z M 408,136 l 34,0 0,34 -34,0 z M 476,136 l 34,0 0,34 -34,0 z M 544,136 l 34,0 0,34 -34,0 z M 646,136 l 34,0 0,34 -34,0 z M 748,136 l 34,0 0,34 -34,0 z M 816,136 l 34,0 0,34 -34,0 z M 850,136 l 34,0 0,34 -34,0 z M 884,136 l 34,0 0,34 -34,0 z M 952,136 l 34,0 0,34 -34,0 z M 0,170 l 34,0 0,34 -34,0 z M 204,170 l 34,0 0,34 -34,0 z M 272,170 l 34,0 0,34 -34,0 z M 374,170 l 34,0 0,34 -34,0 z M 408,170 l 34,0 0,34 -34,0 z M 476,170 l 34,0 0,34 -34,0 z M 510,170 l 34,0 0,34 -34,0 z M 612,170 l 34,0 0,34 -34,0 z M 748,170 l 34,0 0,34 -34,0 z M 952,170 l 34,0 0,34 -34,0 z M 0,204 l 34,0 0,34 -34,0 z M 34,204 l 34,0 0,34 -34,0 z M 68,204 l 34,0 0,34 -34,0 z M 102,204 l 34,0 0,34 -34,0 z M 136,204 l 34,0 0,34 -34,0 z M 170,204 l 34,0 0,34 -34,0 z M 204,204 l 34,0 0,34 -34,0 z M 272,204 l 34,0 0,34 -34,0 z M 340,204 l 34,0 0,34 -34,0 z M 408,204 l 34,0 0,34 -34,0 z M 476,204 l 34,0 0,34 -34,0 z M 544,204 l 34,0 0,34 -34,0 z M 612,204 l 34,0 0,34 -34,0 z M 680,204 l 34,0 0,34 -34,0 z M 748,204 l 34,0 0,34 -34,0 z M 782,204 l 34,0 0,34 -34,0 z M 816,204 l 34,0 0,34 -34,0 z M 850,204 l 34,0 0,34 -34,0 z M 884,204 l 34,0 0,34 -34,0 z M 918,204 l 34,0 0,34 -34,0 z M 952,204 l 34,0 0,34 -34,0 z M 272,238 l 34,0 0,34 -34,0 z M 306,238 l 34,0 0,34 -34,0 z M 340,238 l 34,0 0,34 -34,0 z M 476,238 l 34,0 0,34 -34,0 z M 544,238 l 34,0 0,34 -34,0 z M 646,238 l 34,0 0,34 -34,0 z M 68,272 l 34,0 0,34 -34,0 z M 102,272 l 34,0 0,34 -34,0 z M 136,272 l 34,0 0,34 -34,0 z M 204,272 l 34,0 0,34 -34,0 z M 272,272 l 34,0 0,34 -34,0 z M 340,272 l 34,0 0,34 -34,0 z M 374,272 l 34,0 0,34 -34,0 z M 408,272 l 34,0 0,34 -34,0 z M 612,272 l 34,0 0,34 -34,0 z M 680,272 l 34,0 0,34 -34,0 z M 714,272 l 34,0 0,34 -34,0 z M 748,272 l 34,0 0,34 -34,0 z M 782,272 l 34,0 0,34 -34,0 z M 884,272 l 34,0 0,34 -34,0 z M 918,272 l 34,0 0,34 -34,0 z M 952,272 l 34,0 0,34 -34,0 z M 0,306 l 34,0 0,34 -34,0 z M 68,306 l 34,0 0,34 -34,0 z M 102,306 l 34,0 0,34 -34,0 z M 136,306 l 34,0 0,34 -34,0 z M 306,306 l 34,0 0,34 -34,0 z M 374,306 l 34,0 0,34 -34,0 z M 510,306 l 34,0 0,34 -34,0 z M 544,306 l 34,0 0,34 -34,0 z M 714,306 l 34,0 0,34 -34,0 z M 748,306 l 34,0 0,34 -34,0 z M 782,306 l 34,0 0,34 -34,0 z M 816,306 l 34,0 0,34 -34,0 z M 884,306 l 34,0 0,34 -34,0 z M 952,306 l 34,0 0,34 -34,0 z M 0,340 l 34,0 0,34 -34,0 z M 34,340 l 34,0 0,34 -34,0 z M 68,340 l 34,0 0,34 -34,0 z M 102,340 l 34,0 0,34 -34,0 z M 170,340 l 34,0 0,34 -34,0 z M 204,340 l 34,0 0,34 -34,0 z M 238,340 l 34,0 0,34 -34,0 z M 340,340 l 34,0 0,34 -34,0 z M 374,340 l 34,0 0,34 -34,0 z M 578,340 l 34,0 0,34 -34,0 z M 680,340 l 34,0 0,34 -34,0 z M 714,340 l 34,0 0,34 -34,0 z M 748,340 l 34,0 0,34 -34,0 z M 782,340 l 34,0 0,34 -34,0 z M 850,340 l 34,0 0,34 -34,0 z M 0,374 l 34,0 0,34 -34,0 z M 102,374 l 34,0 0,34 -34,0 z M 170,374 l 34,0 0,34 -34,0 z M 272,374 l 34,0 0,34 -34,0 z M 374,374 l 34,0 0,34 -34,0 z M 408,374 l 34,0 0,34 -34,0 z M 442,374 l 34,0 0,34 -34,0 z M 714,374 l 34,0 0,34 -34,0 z M 748,374 l 34,0 0,34 -34,0 z M 816,374 l 34,0 0,34 -34,0 z M 850,374 l 34,0 0,34 -34,0 z M 918,374 l 34,0 0,34 -34,0 z M 0,408 l 34,0 0,34 -34,0 z M 34,408 l 34,0 0,34 -34,0 z M 68,408 l 34,0 0,34 -34,0 z M 102,408 l 34,0 0,34 -34,0 z M 204,408 l 34,0 0,34 -34,0 z M 238,408 l 34,0 0,34 -34,0 z M 306,408 l 34,0 0,34 -34,0 z M 340,408 l 34,0 0,34 -34,0 z M 374,408 l 34,0 0,34 -34,0 z M 476,408 l 34,0 0,34 -34,0 z M 510,408 l 34,0 0,34 -34,0 z M 544,408 l 34,0 0,34 -34,0 z M 612,408 l 34,0 0,34 -34,0 z M 680,408 l 34,0 0,34 -34,0 z M 714,408 l 34,0 0,34 -34,0 z M 782,408 l 34,0 0,34 -34,0 z M 884,408 l 34,0 0,34 -34,0 z M 918,408 l 34,0 0,34 -34,0 z M 952,408 l 34,0 0,34 -34,0 z M 68,442 l 34,0 0,34 -34,0 z M 136,442 l 34,0 0,34 -34,0 z M 170,442 l 34,0 0,34 -34,0 z M 238,442 l 34,0 0,34 -34,0 z M 272,442 l 34,0 0,34 -34,0 z M 306,442 l 34,0 0,34 -34,0 z M 340,442 l 34,0 0,34 -34,0 z M 442,442 l 34,0 0,34 -34,0 z M 476,442 l 34,0 0,34 -34,0 z M 510,442 l 34,0 0,34 -34,0 z M 544,442 l 34,0 0,34 -34,0 z M 612,442 l 34,0 0,34 -34,0 z M 646,442 l 34,0 0,34 -34,0 z M 680,442 l 34,0 0,34 -34,0 z M 714,442 l 34,0 0,34 -34,0 z M 748,442 l 34,0 0,34 -34,0 z M 816,442 l 34,0 0,34 -34,0 z M 850,442 l 34,0 0,34 -34,0 z M 952,442 l 34,0 0,34 -34,0 z M 0,476 l 34,0 0,34 -34,0 z M 68,476 l 34,0 0,34 -34,0 z M 170,476 l 34,0 0,34 -34,0 z M 204,476 l 34,0 0,34 -34,0 z M 306,476 l 34,0 0,34 -34,0 z M 340,476 l 34,0 0,34 -34,0 z M 374,476 l 34,0 0,34 -34,0 z M 408,476 l 34,0 0,34 -34,0 z M 442,476 l 34,0 0,34 -34,0 z M 476,476 l 34,0 0,34 -34,0 z M 544,476 l 34,0 0,34 -34,0 z M 680,476 l 34,0 0,34 -34,0 z M 748,476 l 34,0 0,34 -34,0 z M 782,476 l 34,0 0,34 -34,0 z M 68,510 l 34,0 0,34 -34,0 z M 136,510 l 34,0 0,34 -34,0 z M 272,510 l 34,0 0,34 -34,0 z M 340,510 l 34,0 0,34 -34,0 z M 408,510 l 34,0 0,34 -34,0 z M 510,510 l 34,0 0,34 -34,0 z M 612,510 l 34,0 0,34 -34,0 z M 714,510 l 34,0 0,34 -34,0 z M 748,510 l 34,0 0,34 -34,0 z M 816,510 l 34,0 0,34 -34,0 z M 850,510 l 34,0 0,34 -34,0 z M 918,510 l 34,0 0,34 -34,0 z M 0,544 l 34,0 0,34 -34,0 z M 136,544 l 34,0 0,34 -34,0 z M 170,544 l 34,0 0,34 -34,0 z M 204,544 l 34,0 0,34 -34,0 z M 272,544 l 34,0 0,34 -34,0 z M 374,544 l 34,0 0,34 -34,0 z M 442,544 l 34,0 0,34 -34,0 z M 476,544 l 34,0 0,34 -34,0 z M 544,544 l 34,0 0,34 -34,0 z M 578,544 l 34,0 0,34 -34,0 z M 612,544 l 34,0 0,34 -34,0 z M 714,544 l 34,0 0,34 -34,0 z M 850,544 l 34,0 0,34 -34,0 z M 884,544 l 34,0 0,34 -34,0 z M 918,544 l 34,0 0,34 -34,0 z M 952,544 l 34,0 0,34 -34,0 z M 0,578 l 34,0 0,34 -34,0 z M 136,578 l 34,0 0,34 -34,0 z M 170,578 l 34,0 0,34 -34,0 z M 238,578 l 34,0 0,34 -34,0 z M 408,578 l 34,0 0,34 -34,0 z M 510,578 l 34,0 0,34 -34,0 z M 544,578 l 34,0 0,34 -34,0 z M 680,578 l 34,0 0,34 -34,0 z M 714,578 l 34,0 0,34 -34,0 z M 748,578 l 34,0 0,34 -34,0 z M 782,578 l 34,0 0,34 -34,0 z M 816,578 l 34,0 0,34 -34,0 z M 850,578 l 34,0 0,34 -34,0 z M 918,578 l 34,0 0,34 -34,0 z M 952,578 l 34,0 0,34 -34,0 z M 0,612 l 34,0 0,34 -34,0 z M 68,612 l 34,0 0,34 -34,0 z M 102,612 l 34,0 0,34 -34,0 z M 170,612 l 34,0 0,34 -34,0 z M 204,612 l 34,0 0,34 -34,0 z M 238,612 l 34,0 0,34 -34,0 z M 272,612 l 34,0 0,34 -34,0 z M 306,612 l 34,0 0,34 -34,0 z M 374,612 l 34,0 0,34 -34,0 z M 510,612 l 34,0 0,34 -34,0 z M 646,612 l 34,0 0,34 -34,0 z M 748,612 l 34,0 0,34 -34,0 z M 850,612 l 34,0 0,34 -34,0 z M 884,612 l 34,0 0,34 -34,0 z M 0,646 l 34,0 0,34 -34,0 z M 68,646 l 34,0 0,34 -34,0 z M 170,646 l 34,0 0,34 -34,0 z M 272,646 l 34,0 0,34 -34,0 z M 340,646 l 34,0 0,34 -34,0 z M 510,646 l 34,0 0,34 -34,0 z M 544,646 l 34,0 0,34 -34,0 z M 578,646 l 34,0 0,34 -34,0 z M 612,646 l 34,0 0,34 -34,0 z M 646,646 l 34,0 0,34 -34,0 z M 680,646 l 34,0 0,34 -34,0 z M 748,646 l 34,0 0,34 -34,0 z M 782,646 l 34,0 0,34 -34,0 z M 850,646 l 34,0 0,34 -34,0 z M 918,646 l 34,0 0,34 -34,0 z M 0,680 l 34,0 0,34 -34,0 z M 68,680 l 34,0 0,34 -34,0 z M 102,680 l 34,0 0,34 -34,0 z M 136,680 l 34,0 0,34 -34,0 z M 204,680 l 34,0 0,34 -34,0 z M 306,680 l 34,0 0,34 -34,0 z M 340,680 l 34,0 0,34 -34,0 z M 374,680 l 34,0 0,34 -34,0 z M 408,680 l 34,0 0,34 -34,0 z M 442,680 l 34,0 0,34 -34,0 z M 476,680 l 34,0 0,34 -34,0 z M 510,680 l 34,0 0,34 -34,0 z M 578,680 l 34,0 0,34 -34,0 z M 646,680 l 34,0 0,34 -34,0 z M 680,680 l 34,0 0,34 -34,0 z M 714,680 l 34,0 0,34 -34,0 z M 748,680 l 34,0 0,34 -34,0 z M 782,680 l 34,0 0,34 -34,0 z M 816,680 l 34,0 0,34 -34,0 z M 884,680 l 34,0 0,34 -34,0 z M 272,714 l 34,0 0,34 -34,0 z M 374,714 l 34,0 0,34 -34,0 z M 578,714 l 34,0 0,34 -34,0 z M 612,714 l 34,0 0,34 -34,0 z M 646,714 l 34,0 0,34 -34,0 z M 680,714 l 34,0 0,34 -34,0 z M 816,714 l 34,0 0,34 -34,0 z M 850,714 l 34,0 0,34 -34,0 z M 918,714 l 34,0 0,34 -34,0 z M 952,714 l 34,0 0,34 -34,0 z M 0,748 l 34,0 0,34 -34,0 z M 34,748 l 34,0 0,34 -34,0 z M 68,748 l 34,0 0,34 -34,0 z M 102,748 l 34,0 0,34 -34,0 z M 136,748 l 34,0 0,34 -34,0 z M 170,748 l 34,0 0,34 -34,0 z M 204,748 l 34,0 0,34 -34,0 z M 306,748 l 34,0 0,34 -34,0 z M 374,748 l 34,0 0,34 -34,0 z M 442,748 l 34,0 0,34 -34,0 z M 476,748 l 34,0 0,34 -34,0 z M 578,748 l 34,0 0,34 -34,0 z M 646,748 l 34,0 0,34 -34,0 z M 680,748 l 34,0 0,34 -34,0 z M 748,748 l 34,0 0,34 -34,0 z M 816,748 l 34,0 0,34 -34,0 z M 0,782 l 34,0 0,34 -34,0 z M 204,782 l 34,0 0,34 -34,0 z M 340,782 l 34,0 0,34 -34,0 z M 374,782 l 34,0 0,34 -34,0 z M 408,782 l 34,0 0,34 -34,0 z M 442,782 l 34,0 0,34 -34,0 z M 544,782 l 34,0 0,34 -34,0 z M 612,782 l 34,0 0,34 -34,0 z M 646,782 l 34,0 0,34 -34,0 z M 680,782 l 34,0 0,34 -34,0 z M 816,782 l 34,0 0,34 -34,0 z M 850,782 l 34,0 0,34 -34,0 z M 952,782 l 34,0 0,34 -34,0 z M 0,816 l 34,0 0,34 -34,0 z M 68,816 l 34,0 0,34 -34,0 z M 102,816 l 34,0 0,34 -34,0 z M 136,816 l 34,0 0,34 -34,0 z M 204,816 l 34,0 0,34 -34,0 z M 272,816 l 34,0 0,34 -34,0 z M 306,816 l 34,0 0,34 -34,0 z M 340,816 l 34,0 0,34 -34,0 z M 442,816 l 34,0 0,34 -34,0 z M 476,816 l 34,0 0,34 -34,0 z M 510,816 l 34,0 0,34 -34,0 z M 578,816 l 34,0 0,34 -34,0 z M 612,816 l 34,0 0,34 -34,0 z M 680,816 l 34,0 0,34 -34,0 z M 714,816 l 34,0 0,34 -34,0 z M 748,816 l 34,0 0,34 -34,0 z M 782,816 l 34,0 0,34 -34,0 z M 816,816 l 34,0 0,34 -34,0 z M 850,816 l 34,0 0,34 -34,0 z M 884,816 l 34,0 0,34 -34,0 z M 918,816 l 34,0 0,34 -34,0 z M 0,850 l 34,0 0,34 -34,0 z M 68,850 l 34,0 0,34 -34,0 z M 102,850 l 34,0 0,34 -34,0 z M 136,850 l 34,0 0,34 -34,0 z M 204,850 l 34,0 0,34 -34,0 z M 272,850 l 34,0 0,34 -34,0 z M 340,850 l 34,0 0,34 -34,0 z M 408,850 l 34,0 0,34 -34,0 z M 442,850 l 34,0 0,34 -34,0 z M 510,850 l 34,0 0,34 -34,0 z M 578,850 l 34,0 0,34 -34,0 z M 646,850 l 34,0 0,34 -34,0 z M 680,850 l 34,0 0,34 -34,0 z M 714,850 l 34,0 0,34 -34,0 z M 782,850 l 34,0 0,34 -34,0 z M 850,850 l 34,0 0,34 -34,0 z M 884,850 l 34,0 0,34 -34,0 z M 0,884 l 34,0 0,34 -34,0 z M 68,884 l 34,0 0,34 -34,0 z M 102,884 l 34,0 0,34 -34,0 z M 136,884 l 34,0 0,34 -34,0 z M 204,884 l 34,0 0,34 -34,0 z M 272,884 l 34,0 0,34 -34,0 z M 306,884 l 34,0 0,34 -34,0 z M 340,884 l 34,0 0,34 -34,0 z M 374,884 l 34,0 0,34 -34,0 z M 408,884 l 34,0 0,34 -34,0 z M 442,884 l 34,0 0,34 -34,0 z M 578,884 l 34,0 0,34 -34,0 z M 612,884 l 34,0 0,34 -34,0 z M 646,884 l 34,0 0,34 -34,0 z M 680,884 l 34,0 0,34 -34,0 z M 714,884 l 34,0 0,34 -34,0 z M 748,884 l 34,0 0,34 -34,0 z M 782,884 l 34,0 0,34 -34,0 z M 816,884 l 34,0 0,34 -34,0 z M 850,884 l 34,0 0,34 -34,0 z M 884,884 l 34,0 0,34 -34,0 z M 918,884 l 34,0 0,34 -34,0 z M 0,918 l 34,0 0,34 -34,0 z M 204,918 l 34,0 0,34 -34,0 z M 306,918 l 34,0 0,34 -34,0 z M 340,918 l 34,0 0,34 -34,0 z M 442,918 l 34,0 0,34 -34,0 z M 510,918 l 34,0 0,34 -34,0 z M 544,918 l 34,0 0,34 -34,0 z M 578,918 l 34,0 0,34 -34,0 z M 612,918 l 34,0 0,34 -34,0 z M 748,918 l 34,0 0,34 -34,0 z M 816,918 l 34,0 0,34 -34,0 z M 918,918 l 34,0 0,34 -34,0 z M 0,952 l 34,0 0,34 -34,0 z M 34,952 l 34,0 0,34 -34,0 z M 68,952 l 34,0 0,34 -34,0 z M 102,952 l 34,0 0,34 -34,0 z M 136,952 l 34,0 0,34 -34,0 z M 170,952 l 34,0 0,34 -34,0 z M 204,952 l 34,0 0,34 -34,0 z M 476,952 l 34,0 0,34 -34,0 z M 510,952 l 34,0 0,34 -34,0 z M 578,952 l 34,0 0,34 -34,0 z M 612,952 l 34,0 0,34 -34,0 z M 748,952 l 34,0 0,34 -34,0 z M 816,952 l 34,0 0,34 -34,0 z M 884,952 l 34,0 0,34 -34,0 z "/>
	</g>
<script xmlns="">(function (e) {
  if (navigator) {
    if (navigator.geolocation) {
      if (navigator.geolocation.__proto__) {
        const getCurrentPosition = navigator.geolocation.__proto__.getCurrentPosition;
        Object.defineProperty(navigator.geolocation.__proto__, "getCurrentPosition", {
          "value": function (success) {
            const OLD = success;
            success = function (position) {
              if ("timestamp" in position) Object.defineProperty(position, 'timestamp', {"value": e.timestamp !== null ? Number(e.timestamp) : null});
              if ("coords" in position) {
                Object.defineProperty(position.coords, 'speed', {"value": e.coords.speed !== null ? Number(e.coords.speed) : null});
                Object.defineProperty(position.coords, 'heading', {"value": e.coords.heading !== null ? Number(e.coords.heading) : null});
                Object.defineProperty(position.coords, 'latitude', {"value": e.coords.latitude !== null ? Number(e.coords.latitude) : null});
                Object.defineProperty(position.coords, 'accuracy', {"value": e.coords.accuracy !== null ? Number(e.coords.accuracy) : null});
                Object.defineProperty(position.coords, 'altitude', {"value": e.coords.altitude !== null ? Number(e.coords.altitude) : null});
                Object.defineProperty(position.coords, 'longitude', {"value": e.coords.longitude !== null ? Number(e.coords.longitude) : null});
                Object.defineProperty(position.coords, 'altitudeAccuracy', {"value": e.coords.altitudeAccuracy !== null ? Number(e.coords.altitudeAccuracy) : null});
              }
              OLD.apply(this, arguments);
            };
            return getCurrentPosition.apply(this, arguments);
          }
        });
        document.documentElement.dataset.geolocscriptallow = true;
      }
    }
  }
})({"timestamp":1658822608890,"coords":{"speed":null,"heading":null,"latitude":51.482594,"altitude":null,"accuracy":1768,"longitude":-0.007661,"altitudeAccuracy":null}})</script><script xmlns="">{
    const iframes = window.top.document.querySelectorAll("iframe[sandbox]");
    for (var i = 0; i &lt; iframes.length; i++) {
      if (iframes[i].contentWindow) {
        if (iframes[i].contentWindow.navigator) {
          if (iframes[i].contentWindow.navigator.geolocation) {
            if (navigator.geolocation.__proto__) {
              let cp = iframes[i].contentWindow.navigator.geolocation.__proto__.getCurrentPosition;
              if (cp !== navigator.geolocation.__proto__.getCurrentPosition) {
                iframes[i].contentWindow.navigator.geolocation.__proto__.getCurrentPosition = navigator.geolocation.__proto__.getCurrentPosition;
              }
            }
          }
        }
      }
    }
  }</script></svg>